<svg width="59" height="58" viewBox="0 0 59 58" fill="none" xmlns="http://www.w3.org/2000/svg">
<path d="M55.4475 9.08967C55.434 8.86836 55.3399 8.65967 55.1829 8.5031C55.0259 8.34654 54.8169 8.25295 54.5956 8.24006C43.2108 7.56037 34.1053 10.9815 30.2356 17.3683C27.5984 21.7228 27.7049 26.8658 30.5165 31.9158C28.5323 34.0955 27.2221 36.8033 26.7443 39.7119L21.4223 34.3899C23.3776 30.7649 23.4183 27.0651 21.5175 23.925C18.7036 19.2782 12.1106 16.7951 3.87506 17.2776C3.65489 17.2915 3.44735 17.3853 3.29135 17.5413C3.13535 17.6973 3.04162 17.9048 3.02772 18.125C2.54514 26.356 5.02826 32.949 9.67506 35.7629C11.1664 36.6784 12.8823 37.1631 14.6322 37.163C16.5639 37.1302 18.4569 36.6162 20.14 35.6677L26.5313 42.0658V48.9375C26.5313 49.1778 26.6268 49.4083 26.7967 49.5783C26.9667 49.7482 27.1972 49.8437 27.4376 49.8437C27.6779 49.8437 27.9084 49.7482 28.0784 49.5783C28.2483 49.4083 28.3438 49.1778 28.3438 48.9375V42.2561C28.3353 38.9104 29.5698 35.6807 31.8079 33.1936C34.4112 34.6346 37.0347 35.3596 39.5654 35.3596C41.9494 35.36 44.287 34.7005 46.3193 33.4542C52.7038 29.5822 56.1181 20.4767 55.4475 9.08967ZM10.613 34.2109C6.7003 31.8456 4.55475 26.211 4.79944 19.0494C11.9611 18.8047 17.5957 20.9502 19.961 24.8629C21.4291 27.2894 21.454 30.1577 20.0652 33.0396L13.5765 26.5463C13.4041 26.3901 13.1782 26.3062 12.9457 26.3119C12.7131 26.3176 12.4916 26.4126 12.3271 26.5771C12.1627 26.7416 12.0677 26.963 12.062 27.1956C12.0563 27.4281 12.1402 27.654 12.2964 27.8264L18.7919 34.3219C15.9078 35.7108 13.0395 35.6858 10.613 34.2109ZM45.379 31.9C41.7427 34.1022 37.429 34.0727 33.1265 31.8433L46.2037 18.7639C46.3667 18.5927 46.4563 18.3646 46.4535 18.1283C46.4507 17.892 46.3556 17.6661 46.1887 17.4988C46.0217 17.3316 45.796 17.2362 45.5597 17.2329C45.3234 17.2297 45.0951 17.3189 44.9237 17.4815L31.8442 30.561C29.6148 26.2563 29.5786 21.9516 31.7876 18.3085C35.2109 12.6444 43.3604 9.57904 53.6803 10.0072C54.1108 20.3272 51.034 28.4766 45.379 31.9Z" fill="black"/>
</svg>
